<svg xmlns="http://www.w3.org/2000/svg" xmlns:xlink="http://www.w3.org/1999/xlink" contentStyleType="text/css" data-diagram-type="CLASS" height="640px" preserveAspectRatio="none" style="width:560px;height:640px;background:#FFFFFF;" version="1.1" viewBox="0 0 560 640" width="560px" zoomAndPan="magnify"><?plantuml 1.2026.3beta5?><defs/><g><!--class User--><g class="entity" data-qualified-name="User" data-source-line="1" id="ent0002"><rect fill="#F1F1F1" height="113.1875" rx="2.5" ry="2.5" style="stroke:#181818;stroke-width:0.5;" width="78.7119" x="214.71" y="7"/><ellipse cx="236.3708" cy="23" fill="#ADD1B2" rx="11" ry="11" style="stroke:#181818;stroke-width:1;"/><path d="M240.4802,29 L232.7614,29 L232.7614,16.6094 L240.4802,16.6094 L240.4802,18.7656 L235.2145,18.7656 L235.2145,21.4375 L239.9802,21.4375 L239.9802,23.5938 L235.2145,23.5938 L235.2145,26.8438 L240.4802,26.8438 L240.4802,29 Z " fill="#000000"/><text fill="#000000" font-family="sans-serif" font-size="14" lengthAdjust="spacing" textLength="31.9102" x="251.851" y="27.8467">User</text><line style="stroke:#181818;stroke-width:0.5;" x1="215.71" x2="292.4219" y1="39" y2="39"/><g data-visibility-modifier="IE_MANDATORY"><ellipse cx="225.71" cy="52.6484" fill="#000000" rx="3" ry="3" style="stroke:#000000;stroke-width:1;"/></g><text fill="#000000" font-family="sans-serif" font-size="14" lengthAdjust="spacing" textLength="43.5518" x="234.71" y="55.9951">userId</text><line style="stroke:#181818;stroke-width:1;" x1="215.71" x2="292.4219" y1="63.2969" y2="63.2969"/><text fill="#000000" font-family="sans-serif" font-size="14" lengthAdjust="spacing" textLength="39.7031" x="220.71" y="80.292">name</text><text fill="#000000" font-family="sans-serif" font-size="14" lengthAdjust="spacing" textLength="38.6094" x="220.71" y="96.5889">email</text><text fill="#000000" font-family="sans-serif" font-size="14" lengthAdjust="spacing" textLength="66.7119" x="220.71" y="112.8857">password</text></g><!--class Role--><g class="entity" data-qualified-name="Role" data-source-line="9" id="ent0003"><rect fill="#F1F1F1" height="80.5938" rx="2.5" ry="2.5" style="stroke:#181818;stroke-width:0.5;" width="80.127" x="7" y="205.33"/><ellipse cx="29.799" cy="221.33" fill="#ADD1B2" rx="11" ry="11" style="stroke:#181818;stroke-width:1;"/><path d="M33.9083,227.33 L26.1896,227.33 L26.1896,214.9394 L33.9083,214.9394 L33.9083,217.0956 L28.6427,217.0956 L28.6427,219.7675 L33.4083,219.7675 L33.4083,221.9237 L28.6427,221.9237 L28.6427,225.1737 L33.9083,225.1737 L33.9083,227.33 Z " fill="#000000"/><text fill="#000000" font-family="sans-serif" font-size="14" lengthAdjust="spacing" textLength="30.7959" x="45.5321" y="226.1767">Role</text><line style="stroke:#181818;stroke-width:0.5;" x1="8" x2="86.127" y1="237.33" y2="237.33"/><g data-visibility-modifier="IE_MANDATORY"><ellipse cx="18" cy="250.9784" fill="#000000" rx="3" ry="3" style="stroke:#000000;stroke-width:1;"/></g><text fill="#000000" font-family="sans-serif" font-size="14" lengthAdjust="spacing" textLength="39.8398" x="27" y="254.3251">roleId</text><line style="stroke:#181818;stroke-width:1;" x1="8" x2="86.127" y1="261.6269" y2="261.6269"/><text fill="#000000" font-family="sans-serif" font-size="14" lengthAdjust="spacing" textLength="68.127" x="13" y="278.622">roleName</text></g><!--class Request--><g class="entity" data-qualified-name="Request" data-source-line="15" id="ent0004"><rect fill="#F1F1F1" height="96.8906" rx="2.5" ry="2.5" style="stroke:#181818;stroke-width:0.5;" width="92.541" x="121.79" y="197.18"/><ellipse cx="138.1598" cy="213.18" fill="#ADD1B2" rx="11" ry="11" style="stroke:#181818;stroke-width:1;"/><path d="M142.2692,219.18 L134.5504,219.18 L134.5504,206.7894 L142.2692,206.7894 L142.2692,208.9456 L137.0035,208.9456 L137.0035,211.6175 L141.7692,211.6175 L141.7692,213.7737 L137.0035,213.7737 L137.0035,217.0237 L142.2692,217.0237 L142.2692,219.18 Z " fill="#000000"/><text fill="#000000" font-family="sans-serif" font-size="14" lengthAdjust="spacing" textLength="57.4971" x="152.4642" y="218.0267">Request</text><line style="stroke:#181818;stroke-width:0.5;" x1="122.79" x2="213.331" y1="229.18" y2="229.18"/><g data-visibility-modifier="IE_MANDATORY"><ellipse cx="132.79" cy="242.8284" fill="#000000" rx="3" ry="3" style="stroke:#000000;stroke-width:1;"/></g><text fill="#000000" font-family="sans-serif" font-size="14" lengthAdjust="spacing" textLength="66.541" x="141.79" y="246.1751">requestId</text><line style="stroke:#181818;stroke-width:1;" x1="122.79" x2="213.331" y1="253.4769" y2="253.4769"/><text fill="#000000" font-family="sans-serif" font-size="14" lengthAdjust="spacing" textLength="43.0186" x="127.79" y="270.472">status</text><text fill="#000000" font-family="sans-serif" font-size="14" lengthAdjust="spacing" textLength="68.7012" x="127.79" y="286.7689">createdAt</text></g><!--class RequestItem--><g class="entity" data-qualified-name="RequestItem" data-source-line="22" id="ent0005"><rect fill="#F1F1F1" height="80.5938" rx="2.5" ry="2.5" style="stroke:#181818;stroke-width:0.5;" width="124.4102" x="82.86" y="371.08"/><ellipse cx="99.2298" cy="387.08" fill="#ADD1B2" rx="11" ry="11" style="stroke:#181818;stroke-width:1;"/><path d="M103.3392,393.08 L95.6204,393.08 L95.6204,380.6894 L103.3392,380.6894 L103.3392,382.8456 L98.0735,382.8456 L98.0735,385.5175 L102.8392,385.5175 L102.8392,387.6737 L98.0735,387.6737 L98.0735,390.9237 L103.3392,390.9237 L103.3392,393.08 Z " fill="#000000"/><text fill="#000000" font-family="sans-serif" font-size="14" lengthAdjust="spacing" textLength="89.3662" x="113.5342" y="391.9267">RequestItem</text><line style="stroke:#181818;stroke-width:0.5;" x1="83.86" x2="206.2702" y1="403.08" y2="403.08"/><g data-visibility-modifier="IE_MANDATORY"><ellipse cx="93.86" cy="416.7284" fill="#000000" rx="3" ry="3" style="stroke:#000000;stroke-width:1;"/></g><text fill="#000000" font-family="sans-serif" font-size="14" lengthAdjust="spacing" textLength="98.4102" x="102.86" y="420.0751">requestItemId</text><line style="stroke:#181818;stroke-width:1;" x1="83.86" x2="206.2702" y1="427.3769" y2="427.3769"/><text fill="#000000" font-family="sans-serif" font-size="14" lengthAdjust="spacing" textLength="58.3652" x="88.86" y="444.372">quantity</text></g><!--class SupplyItem--><g class="entity" data-qualified-name="SupplyItem" data-source-line="28" id="ent0006"><rect fill="#F1F1F1" height="96.8906" rx="2.5" ry="2.5" style="stroke:#181818;stroke-width:0.5;" width="117" x="86.56" y="528.67"/><ellipse cx="104.0003" cy="544.67" fill="#ADD1B2" rx="11" ry="11" style="stroke:#181818;stroke-width:1;"/><path d="M108.1097,550.67 L100.3909,550.67 L100.3909,538.2794 L108.1097,538.2794 L108.1097,540.4356 L102.844,540.4356 L102.844,543.1075 L107.6097,543.1075 L107.6097,545.2638 L102.844,545.2638 L102.844,548.5138 L108.1097,548.5138 L108.1097,550.67 Z " fill="#000000"/><text fill="#000000" font-family="sans-serif" font-size="14" lengthAdjust="spacing" textLength="79.5771" x="118.5426" y="549.5167">SupplyItem</text><line style="stroke:#181818;stroke-width:0.5;" x1="87.56" x2="202.56" y1="560.67" y2="560.67"/><g data-visibility-modifier="IE_MANDATORY"><ellipse cx="97.56" cy="574.3184" fill="#000000" rx="3" ry="3" style="stroke:#000000;stroke-width:1;"/></g><text fill="#000000" font-family="sans-serif" font-size="14" lengthAdjust="spacing" textLength="91" x="106.56" y="577.6651">supplyItemId</text><line style="stroke:#181818;stroke-width:1;" x1="87.56" x2="202.56" y1="584.9669" y2="584.9669"/><text fill="#000000" font-family="sans-serif" font-size="14" lengthAdjust="spacing" textLength="37.1533" x="92.56" y="601.962">stock</text><text fill="#000000" font-family="sans-serif" font-size="14" lengthAdjust="spacing" textLength="39.7031" x="92.56" y="618.2589">name</text></g><!--class CustomerSite--><g class="entity" data-qualified-name="CustomerSite" data-source-line="36" id="ent0007"><rect fill="#F1F1F1" height="96.8906" rx="2.5" ry="2.5" style="stroke:#181818;stroke-width:0.5;" width="126.8828" x="249.62" y="197.18"/><ellipse cx="264.62" cy="213.18" fill="#ADD1B2" rx="11" ry="11" style="stroke:#181818;stroke-width:1;"/><path d="M268.7294,219.18 L261.0106,219.18 L261.0106,206.7894 L268.7294,206.7894 L268.7294,208.9456 L263.4638,208.9456 L263.4638,211.6175 L268.2294,211.6175 L268.2294,213.7737 L263.4638,213.7737 L263.4638,217.0237 L268.7294,217.0237 L268.7294,219.18 Z " fill="#000000"/><text fill="#000000" font-family="sans-serif" font-size="14" lengthAdjust="spacing" textLength="94.8828" x="278.62" y="218.0267">CustomerSite</text><line style="stroke:#181818;stroke-width:0.5;" x1="250.62" x2="375.5028" y1="229.18" y2="229.18"/><g data-visibility-modifier="IE_MANDATORY"><ellipse cx="260.62" cy="242.8284" fill="#000000" rx="3" ry="3" style="stroke:#000000;stroke-width:1;"/></g><text fill="#000000" font-family="sans-serif" font-size="14" lengthAdjust="spacing" textLength="38.3018" x="269.62" y="246.1751">siteId</text><line style="stroke:#181818;stroke-width:1;" x1="250.62" x2="375.5028" y1="253.4769" y2="253.4769"/><text fill="#000000" font-family="sans-serif" font-size="14" lengthAdjust="spacing" textLength="66.5889" x="255.62" y="270.472">siteName</text><text fill="#000000" font-family="sans-serif" font-size="14" lengthAdjust="spacing" textLength="55.3096" x="255.62" y="286.7689">address</text></g><!--class CustomerAccount--><g class="entity" data-qualified-name="CustomerAccount" data-source-line="43" id="ent0008"><rect fill="#F1F1F1" height="80.5938" rx="2.5" ry="2.5" style="stroke:#181818;stroke-width:0.5;" width="156.7764" x="242.68" y="371.08"/><ellipse cx="257.68" cy="387.08" fill="#ADD1B2" rx="11" ry="11" style="stroke:#181818;stroke-width:1;"/><path d="M261.7894,393.08 L254.0706,393.08 L254.0706,380.6894 L261.7894,380.6894 L261.7894,382.8456 L256.5238,382.8456 L256.5238,385.5175 L261.2894,385.5175 L261.2894,387.6737 L256.5238,387.6737 L256.5238,390.9237 L261.7894,390.9237 L261.7894,393.08 Z " fill="#000000"/><text fill="#000000" font-family="sans-serif" font-size="14" lengthAdjust="spacing" textLength="124.7764" x="271.68" y="391.9267">CustomerAccount</text><line style="stroke:#181818;stroke-width:0.5;" x1="243.68" x2="398.4564" y1="403.08" y2="403.08"/><g data-visibility-modifier="IE_MANDATORY"><ellipse cx="253.68" cy="416.7284" fill="#000000" rx="3" ry="3" style="stroke:#000000;stroke-width:1;"/></g><text fill="#000000" font-family="sans-serif" font-size="14" lengthAdjust="spacing" textLength="68.79" x="262.68" y="420.0751">accountId</text><line style="stroke:#181818;stroke-width:1;" x1="243.68" x2="398.4564" y1="427.3769" y2="427.3769"/><text fill="#000000" font-family="sans-serif" font-size="14" lengthAdjust="spacing" textLength="97.0771" x="248.68" y="444.372">accountName</text></g><!--class InvitationCode--><g class="entity" data-qualified-name="InvitationCode" data-source-line="49" id="ent0009"><rect fill="#F1F1F1" height="96.8906" rx="2.5" ry="2.5" style="stroke:#181818;stroke-width:0.5;" width="133.9033" x="411.11" y="197.18"/><ellipse cx="426.11" cy="213.18" fill="#ADD1B2" rx="11" ry="11" style="stroke:#181818;stroke-width:1;"/><path d="M430.2194,219.18 L422.5006,219.18 L422.5006,206.7894 L430.2194,206.7894 L430.2194,208.9456 L424.9538,208.9456 L424.9538,211.6175 L429.7194,211.6175 L429.7194,213.7737 L424.9538,213.7737 L424.9538,217.0237 L430.2194,217.0237 L430.2194,219.18 Z " fill="#000000"/><text fill="#000000" font-family="sans-serif" font-size="14" lengthAdjust="spacing" textLength="101.9033" x="440.11" y="218.0267">InvitationCode</text><line style="stroke:#181818;stroke-width:0.5;" x1="412.11" x2="544.0133" y1="229.18" y2="229.18"/><g data-visibility-modifier="IE_MANDATORY"><ellipse cx="422.11" cy="242.8284" fill="#000000" rx="3" ry="3" style="stroke:#000000;stroke-width:1;"/></g><text fill="#000000" font-family="sans-serif" font-size="14" lengthAdjust="spacing" textLength="46.7783" x="431.11" y="246.1751">codeId</text><line style="stroke:#181818;stroke-width:1;" x1="412.11" x2="544.0133" y1="253.4769" y2="253.4769"/><text fill="#000000" font-family="sans-serif" font-size="14" lengthAdjust="spacing" textLength="33.7627" x="417.11" y="270.472">code</text><text fill="#000000" font-family="sans-serif" font-size="14" lengthAdjust="spacing" textLength="33.667" x="417.11" y="286.7689">used</text></g><!--link User to Role--><g class="link" data-entity-1="ent0002" data-entity-2="ent0003" data-link-type="crowfoot" data-source-line="57" id="lnk10"><path codeLine="57" d="M198.7769,95.5623 C171.8269,111.3823 151.74,125.19 124.06,150.18 C106.01,166.49 93.4984,180.8542 79.8384,198.7242" fill="none" id="User-Role" style="stroke:#181818;stroke-width:1;"/><line style="stroke:#181818;stroke-width:1;" x1="207.4008" x2="211.2626" y1="90.4999" y2="81.2756"/><line style="stroke:#181818;stroke-width:1;" x1="207.4008" x2="217.3374" y1="90.4999" y2="91.6244"/><line style="stroke:#181818;stroke-width:1;" x1="207.4008" x2="214.3" y1="90.4999" y2="86.45"/><ellipse cx="202.2265" cy="93.5373" fill="none" rx="4" ry="4" style="stroke:#181818;stroke-width:1;"/><line style="stroke:#181818;stroke-width:1;" x1="80.5871" x2="74.2313" y1="204.3313" y2="199.4729"/><line style="stroke:#181818;stroke-width:1;" x1="82.409" x2="76.0532" y1="201.9479" y2="197.0895"/><line style="stroke:#181818;stroke-width:1;" x1="79.8384" x2="74.98" y1="198.7242" y2="205.08"/><text fill="#000000" font-family="sans-serif" font-size="13" lengthAdjust="spacing" textLength="72.3823" x="125.06" y="163.2469">is assigned</text></g><!--link User to Request--><g class="link" data-entity-1="ent0002" data-entity-2="ent0004" data-link-type="crowfoot" data-source-line="58" id="lnk11"><path codeLine="58" d="M223.8727,127.7892 C212.1927,152.2492 209.8276,157.1875 198.6276,180.6375" fill="none" id="User-Request" style="stroke:#181818;stroke-width:1;"/><line style="stroke:#181818;stroke-width:1;" x1="221.9868" x2="229.206" y1="122.456" y2="125.9032"/><line style="stroke:#181818;stroke-width:1;" x1="220.6941" x2="227.9132" y1="125.1631" y2="128.6104"/><line style="stroke:#181818;stroke-width:1;" x1="223.8727" x2="227.32" y1="127.7892" y2="120.57"/><line style="stroke:#181818;stroke-width:1;" x1="194.3178" x2="196.2842" y1="189.6611" y2="199.4659"/><line style="stroke:#181818;stroke-width:1;" x1="194.3178" x2="185.4558" y1="189.6611" y2="194.2941"/><line style="stroke:#181818;stroke-width:1;" x1="194.3178" x2="190.87" y1="189.6611" y2="196.88"/><ellipse cx="196.9037" cy="184.2469" fill="none" rx="4" ry="4" style="stroke:#181818;stroke-width:1;"/><text fill="#000000" font-family="sans-serif" font-size="13" lengthAdjust="spacing" textLength="48.3247" x="212.06" y="163.2469">creates</text></g><!--link Request to RequestItem--><g class="link" data-entity-1="ent0004" data-entity-2="ent0005" data-link-type="crowfoot" data-source-line="59" id="lnk12"><path codeLine="59" d="M160.2365,302.3521 C156.8265,326.6121 156.3554,329.9852 153.1254,352.9652" fill="none" id="Request-RequestItem" style="stroke:#181818;stroke-width:1;"/><line style="stroke:#181818;stroke-width:1;" x1="156.8322" x2="164.7543" y1="297.8343" y2="298.9478"/><line style="stroke:#181818;stroke-width:1;" x1="156.4146" x2="164.3367" y1="300.8051" y2="301.9186"/><line style="stroke:#181818;stroke-width:1;" x1="160.2365" x2="161.35" y1="302.3521" y2="294.43"/><line style="stroke:#181818;stroke-width:1;" x1="151.7335" x2="156.5616" y1="362.8679" y2="371.6251"/><line style="stroke:#181818;stroke-width:1;" x1="151.7335" x2="144.6784" y1="362.8679" y2="369.9549"/><line style="stroke:#181818;stroke-width:1;" x1="151.7335" x2="150.62" y1="362.8679" y2="370.79"/><ellipse cx="152.5686" cy="356.9263" fill="none" rx="4" ry="4" style="stroke:#181818;stroke-width:1;"/><text fill="#000000" font-family="sans-serif" font-size="13" lengthAdjust="spacing" textLength="55.0278" x="158.06" y="337.1469">contains</text></g><!--link RequestItem to SupplyItem--><g class="link" data-entity-1="ent0005" data-entity-2="ent0006" data-link-type="crowfoot" data-source-line="60" id="lnk13"><path codeLine="60" d="M145.06,470.01 C145.06,493.01 145.06,496.13 145.06,520.39" fill="none" id="RequestItem-SupplyItem" style="stroke:#181818;stroke-width:1;"/><line style="stroke:#181818;stroke-width:1;" x1="145.06" x2="139.06" y1="460.01" y2="452.01"/><line style="stroke:#181818;stroke-width:1;" x1="145.06" x2="151.06" y1="460.01" y2="452.01"/><line style="stroke:#181818;stroke-width:1;" x1="145.06" x2="145.06" y1="460.01" y2="452.01"/><ellipse cx="145.06" cy="466.01" fill="none" rx="4" ry="4" style="stroke:#181818;stroke-width:1;"/><line style="stroke:#181818;stroke-width:1;" x1="149.06" x2="141.06" y1="524.39" y2="524.39"/><line style="stroke:#181818;stroke-width:1;" x1="149.06" x2="141.06" y1="521.39" y2="521.39"/><line style="stroke:#181818;stroke-width:1;" x1="145.06" x2="145.06" y1="520.39" y2="528.39"/><text fill="#000000" font-family="sans-serif" font-size="13" lengthAdjust="spacing" textLength="69.418" x="146.06" y="494.7369">references</text></g><!--link User to CustomerSite--><g class="link" data-entity-1="ent0002" data-entity-2="ent0007" data-link-type="association" data-source-line="61" id="lnk14"><path codeLine="61" d="M274.9025,128.1718 C282.9225,152.6318 287.2372,165.8283 294.9272,189.2783" fill="none" id="User-CustomerSite" style="stroke:#181818;stroke-width:1;"/><line style="stroke:#181818;stroke-width:1;" x1="269.8553" x2="277.4572" y1="125.6172" y2="123.1247"/><line style="stroke:#181818;stroke-width:1;" x1="270.79" x2="278.3918" y1="128.4678" y2="125.9753"/><line style="stroke:#181818;stroke-width:1;" x1="274.9025" x2="272.41" y1="128.1718" y2="120.57"/><line style="stroke:#181818;stroke-width:1;" x1="299.9744" x2="292.3727" y1="191.8327" y2="194.3256"/><line style="stroke:#181818;stroke-width:1;" x1="299.0396" x2="291.4379" y1="188.9821" y2="191.4749"/><line style="stroke:#181818;stroke-width:1;" x1="294.9272" x2="297.42" y1="189.2783" y2="196.88"/><text fill="#000000" font-family="sans-serif" font-size="13" lengthAdjust="spacing" textLength="82.8242" x="289.06" y="163.2469">assignedSite</text></g><!--link CustomerSite to CustomerAccount--><g class="link" data-entity-1="ent0007" data-entity-2="ent0008" data-link-type="association" data-source-line="62" id="lnk15"><path codeLine="62" d="M315.7887,302.4206 C316.9687,326.6806 317.6206,339.8195 318.7406,362.7995" fill="none" id="CustomerSite-CustomerAccount" style="stroke:#181818;stroke-width:1;"/><line style="stroke:#181818;stroke-width:1;" x1="311.5991" x2="319.5896" y1="298.6196" y2="298.2309"/><line style="stroke:#181818;stroke-width:1;" x1="311.7448" x2="319.7354" y1="301.6161" y2="301.2274"/><line style="stroke:#181818;stroke-width:1;" x1="315.7887" x2="315.4" y1="302.4206" y2="294.43"/><line style="stroke:#181818;stroke-width:1;" x1="322.9305" x2="314.94" y1="366.6" y2="366.9895"/><line style="stroke:#181818;stroke-width:1;" x1="322.7845" x2="314.794" y1="363.6036" y2="363.993"/><line style="stroke:#181818;stroke-width:1;" x1="318.7406" x2="319.13" y1="362.7995" y2="370.79"/><text fill="#000000" font-family="sans-serif" font-size="13" lengthAdjust="spacing" textLength="68.2627" x="319.06" y="337.1469">belongs to</text></g><!--link User to InvitationCode--><g class="link" data-entity-1="ent0002" data-entity-2="ent0009" data-link-type="association" data-source-line="63" id="lnk16"><path codeLine="63" d="M300.6276,93.4833 C326.0576,109.7633 352.55,127.85 380.06,150.18 C397.68,164.48 405.1289,170.8594 420.9789,186.3394" fill="none" id="User-InvitationCode" style="stroke:#181818;stroke-width:1;"/><line style="stroke:#181818;stroke-width:1;" x1="295.1021" x2="299.4155" y1="94.6955" y2="87.9579"/><line style="stroke:#181818;stroke-width:1;" x1="297.6287" x2="301.9421" y1="96.313" y2="89.5754"/><line style="stroke:#181818;stroke-width:1;" x1="300.6276" x2="293.89" y1="93.4833" y2="89.17"/><line style="stroke:#181818;stroke-width:1;" x1="423.8405" x2="431.71" y1="189.1342" y2="196.82"/><ellipse cx="423.8405" cy="189.1342" fill="none" rx="4" ry="4" style="stroke:#181818;stroke-width:1;"/><line style="stroke:#181818;stroke-width:1;" x1="431.6432" x2="426.0535" y1="191.1635" y2="196.8868"/><text fill="#000000" font-family="sans-serif" font-size="13" lengthAdjust="spacing" textLength="98.3823" x="400.06" y="163.2469">registered with</text></g><?plantuml-src PP71RiCW38RlF0NAPTAalC1kLK-vzB1g3y30oz0IQB5PLJLzzpaX92IxW6t-3yDlS6JfBZyGWdm8ALzbvB0n7DOrBqxrm1lqodQyNnJYpGSZda90Gjzz1pCQE5pHCJkDUA65QmIaB4_PIY0fYiY13g08p87-imr1l-EvijvnZMhI5-GvNYxTlG1nAPIzlVx97sOsmyV89ps4iwNyJUIm03ax9PUKCG4GYzQPFcZjeyiVLobRxvWBExSQzslP4UlTqPlSN7EuWcF66yzi6iaBkzGfpGIWc6Rwz7Kz36b8RxAoA7c2jdLWgYGOXhhsZsKoh4dcOoLoRIkPV1nbtf6oRjLD1tE_mdAM1lY204wFbovDMRNnbdNvQMDUYStfZiX-ClG9dNSjIlBbZuQzUzCpMel4Bp7oPkcx-WC0?></g></svg>